<svg width="16" height="17" viewBox="0 0 16 17" fill="none" xmlns="http://www.w3.org/2000/svg">
<path d="M3 4.51291C3 3.21291 4.053 2.15991 5.353 2.15991H10.647C11.947 2.15991 13 3.21291 13 4.51291V14.3669C13 14.4607 12.9736 14.5526 12.9238 14.6322C12.874 14.7117 12.8029 14.7756 12.7185 14.8166C12.6341 14.8576 12.5399 14.874 12.4466 14.864C12.3533 14.8539 12.2648 14.8179 12.191 14.7599L9.202 12.4099C8.99452 12.2475 8.7385 12.1594 8.475 12.1599H5.353C4.72895 12.1599 4.13045 11.912 3.68918 11.4707C3.2479 11.0295 3 10.431 3 9.80691V4.51291Z" stroke="#0FADFF" stroke-width="1.5"/>
</svg>

